<svg xmlns="http://www.w3.org/2000/svg" width="20" height="20" fill="none"  xmlns:v="https://vecta.io/nano"><path d="M18.583 2.813c-.945-.923-2.251-1.384-3.918-1.384a4.45 4.45 0 0 0-1.412.24c-.48.16-.926.376-1.339.647l-1.066.764a10.31 10.31 0 0 0-.848.759 10.33 10.33 0 0 0-.848-.759c-.298-.238-.653-.493-1.066-.764s-.859-.487-1.339-.647-.951-.24-1.412-.24c-1.667 0-2.972.461-3.917 1.384S0 5.015 0 6.652a4.89 4.89 0 0 0 .262 1.54c.175.528.374.978.597 1.35a9.88 9.88 0 0 0 .759 1.088l.619.731.307.29 6.964 6.719a.67.67 0 0 0 .491.201.67.67 0 0 0 .491-.201l6.953-6.697C19.148 9.97 20 8.296 20 6.652c0-1.637-.473-2.917-1.417-3.839zm-2.109 7.812L10 16.864l-6.484-6.25C2.124 9.222 1.429 7.902 1.429 6.652c0-.603.08-1.135.24-1.596s.365-.828.614-1.099.552-.493.91-.664.707-.286 1.049-.346.707-.089 1.094-.089.804.095 1.25.285.857.428 1.233.714l.966.804.67.686c.134.164.316.246.547.246s.413-.082.547-.246c.179-.208.402-.437.67-.686a13.07 13.07 0 0 1 .965-.804c.376-.286.787-.525 1.233-.714s.863-.285 1.25-.285.751.03 1.094.089.692.175 1.049.346.66.393.91.664.454.638.614 1.099.24.993.24 1.596c0 1.25-.699 2.575-2.098 3.973z" fill="#d95204"/></svg>