<svg xmlns="http://www.w3.org/2000/svg" viewBox="0 0 64 64"  xmlns:v="https://vecta.io/nano"><circle cx="40.5" cy="23.5" r="1.9"/><path d="M32 23.2a8.75 8.75 0 0 0-8.8 8.8 8.75 8.75 0 0 0 8.8 8.8 8.75 8.75 0 0 0 8.8-8.8 8.75 8.75 0 0 0-8.8-8.8zm0 13.6c-2.6 0-4.8-2.2-4.8-4.8s2.2-4.8 4.8-4.8 4.8 2.2 4.8 4.8-2.2 4.8-4.8 4.8zm16.1-15.4c-.5-1.3-1.2-2.4-2.2-3.3s-2-1.7-3.3-2.2-2.6-.8-4.3-.8L32 15l-6.3.1c-1.7.1-3 .3-4.3.8s-2.4 1.2-3.3 2.2-1.7 2-2.2 3.3-.8 2.6-.8 4.3L15 32l.1 6.3c.1 1.7.3 3 .8 4.3s1.2 2.4 2.2 3.3 2 1.7 3.3 2.2 2.6.8 4.3.8l6.3.1 6.3-.1c1.7-.1 3-.3 4.3-.8s2.4-1.2 3.3-2.2 1.7-2 2.2-3.3.8-2.6.8-4.3L49 32l-.1-6.3c-.1-1.7-.3-3-.8-4.3zm-3.2 16.7c-.1 1.6-.3 2.4-.6 3-.3.8-.7 1.4-1.3 2s-1.2 1-2 1.3c-.6.2-1.4.5-3 .6h-6c-4 0-4.5 0-6.1-.1s-2.4-.3-3-.6c-.8-.3-1.4-.7-2-1.3s-1-1.2-1.3-2c-.2-.6-.5-1.4-.6-3v-6l.1-6.1c.1-1.6.3-2.4.6-3 .3-.8.7-1.4 1.3-2s1.2-1 2-1.3c.6-.2 1.4-.5 3-.6h6l6.1.1c1.6.1 2.4.3 3 .6.8.3 1.4.7 2 1.3s1 1.2 1.3 2c.2.6.5 1.4.6 3v6l-.1 6.1zM32 0C14.4 0 0 14.4 0 32s14.4 32 32 32 32-14.4 32-32S49.6 0 32 0zm0 60C16.6 60 4 47.4 4 32S16.6 4 32 4s28 12.6 28 28-12.6 28-28 28z"/></svg>