<svg xmlns="http://www.w3.org/2000/svg" width="30" height="30" fill="none"  xmlns:v="https://vecta.io/nano"><g clip-path="url(#A)" fill="#fff"><path fill-rule="evenodd" d="M18.722 20.692c-1.588 1.175 3.349-3.873 1.944-1.954.035-.003-.03.104-.248.37l5.594 5.623c.639.691-.514 2.071-1.298 1.351l-5.62-5.646-.371.256h0z"/><path d="M13.21 22.576a9.52 9.52 0 0 0 6.522-2.722c2.041-2.017 3.092-5.001 2.725-7.85-.628-4.882-4.642-8.195-9.308-8.195-3.545 0-6.991 2.218-8.502 5.433a9.42 9.42 0 0 0 0 7.9c1.5 3.193 4.89 5.399 8.441 5.433h.12 0zm-.111-1.564c-3.605-.035-6.969-2.823-7.638-6.398-.472-2.52.419-5.247 2.273-7.037 2.165-2.09 5.567-2.79 8.397-1.605 2.531 1.06 4.426 3.521 4.775 6.232.299 2.324-.535 4.76-2.174 6.437a7.91 7.91 0 0 1-5.533 2.371h-.101 0z"/></g><defs><clipPath id="A"><path fill="#fff" d="M0 0h30v30H0z"/></clipPath></defs></svg>