<svg width="32" height="32" viewBox="0 0 32 32" fill="none" xmlns="http://www.w3.org/2000/svg">
                     <rect width="32" height="32" rx="5" fill="#D95204" fill-opacity="0.6"/>
                     <path d="M23.31 2H8.69C5 2 2 5 2 8.69V21H4V8.69C4 6.1 6.1 4 8.69 4H23.32C25.9 4 28 6.1 28 8.69V23.32C28 25.9 25.9 28 23.31 28H8.69C6.1 28 4 25.9 4 23.31H2C2 27 5 30 8.69 30H23.32C27 30 30 27 30 23.31V8.69C30 5 27 2 23.31 2Z" fill="black" fill-opacity="0.8"/>
                     <path d="M7 16C7 20.96 11.04 25 16 25C20.96 25 25 20.96 25 16C25 11.04 20.96 7 16 7C11.04 7 7 11.04 7 16ZM23 16C23 19.86 19.86 23 16 23C12.14 23 9 19.86 9 16C9 12.14 12.14 9 16 9C19.86 9 23 12.14 23 16Z" fill="black" fill-opacity="0.8"/>
                     <path d="M24 9C25.1046 9 26 8.10457 26 7C26 5.89543 25.1046 5 24 5C22.8954 5 22 5.89543 22 7C22 8.10457 22.8954 9 24 9Z" fill="black" fill-opacity="0.8"/>
                  </svg> 