<svg width="34" height="34" viewBox="0 0 32 32" fill="none" xmlns="http://www.w3.org/2000/svg">
                     <path d="M16 32C24.8365 32 32 24.8365 32 16C32 7.16347 24.8365 0 16 0C7.16347 0 0 7.16347 0 16C0 24.8365 7.16347 32 16 32Z" fill="url(#paint0_linear)" fill-opacity="0.6"/>
                     <path d="M5.95881 16.7827C7.8292 15.7524 9.91707 14.8926 11.8679 14.0283C15.224 12.6127 18.5935 11.2216 21.9969 9.92657C22.6591 9.7059 23.8489 9.4901 23.9656 10.4714C23.9017 11.8605 23.6389 13.2414 23.4587 14.6224C23.0011 17.6592 22.4723 20.6856 21.9567 23.7124C21.779 24.7206 20.516 25.2425 19.7079 24.5973C17.7657 23.2854 15.8087 21.9864 13.8913 20.6441C13.2633 20.0059 13.8457 19.0894 14.4066 18.6337C16.0062 17.0573 17.7026 15.718 19.2186 14.0601C19.6275 13.0726 18.4193 13.9048 18.0207 14.1598C15.8309 15.6689 13.6946 17.2701 11.3858 18.5964C10.2065 19.2456 8.83193 18.6908 7.65313 18.3285C6.59619 17.8909 5.04737 17.45 5.95871 16.7828L5.95881 16.7827Z" fill="black" fill-opacity="0.8"/>
                     <defs>
                     <linearGradient id="paint0_linear" x1="12.0019" y1="1.3344" x2="4.00187" y2="20" gradientUnits="userSpaceOnUse">
                     <stop stop-color="#D95204"/>
                     <stop offset="1" stop-color="#D95204" stop-opacity="0.95"/>
                     </linearGradient>
                     </defs>
                  </svg>