<svg width="32" height="32" viewBox="0 0 32 32" fill="none" xmlns="http://www.w3.org/2000/svg">
                     <path d="M15.9999 31.713C24.678 31.713 31.7129 24.678 31.7129 16C31.7129 7.32194 24.678 0.286987 15.9999 0.286987C7.32189 0.286987 0.286942 7.32194 0.286942 16C0.286942 24.678 7.32189 31.713 15.9999 31.713Z" fill="#D95204" fill-opacity="0.7"/>
                     <path d="M19.5922 6.58545H16.7392C13.9358 6.58545 11.5584 8.71932 11.5584 12.8621C11.5584 15.3474 12.7097 17.1799 14.7616 18.0838L10.9327 25.0131C10.8074 25.2393 10.9327 25.4148 11.1328 25.4148H12.9099C13.0599 25.4148 13.1605 25.3647 13.2105 25.2393L16.6892 18.4354H17.9405V25.2393C17.9405 25.3141 18.0153 25.4148 18.1154 25.4148H19.6674C19.8174 25.4148 19.8676 25.3394 19.8676 25.2144V6.83651C19.8676 6.66076 19.7674 6.58545 19.5922 6.58545ZM17.9404 16.8288H16.8893C15.2376 16.8288 13.636 15.6238 13.636 12.6111C13.636 9.47239 15.1375 8.19207 16.664 8.19207H17.9405V16.8288H17.9404Z" fill="black" fill-opacity="0.8"/>
                  </svg> 