<svg width="32" height="32" viewBox="0 0 32 32" fill="none" xmlns="http://www.w3.org/2000/svg">
                     <rect width="32" height="32" rx="5" fill="#D95204" fill-opacity="0.6"/>
                     <path d="M26.4 0H5.6C2.50721 0 0 2.50721 0 5.6V26.4C0 29.4928 2.50721 32 5.6 32H26.4C29.4928 32 32 29.4928 32 26.4V5.6C32 2.50721 29.4928 0 26.4 0Z" fill="#D95204" fill-opacity="0.6"/>
                     <path d="M4.81 9.88501H8.65C8.73028 9.88488 8.80869 9.90921 8.87479 9.95477C8.9409 10.0003 8.99155 10.0649 9.02 10.14C9.445 11.235 11.21 15.52 12.825 15.87C14.025 15.87 13.6 10.17 12.075 10.17C11.675 10.17 12.785 9.46001 12.86 9.43001C14.2772 9.04156 15.7728 9.04156 17.19 9.43001C17.955 9.75001 18.085 10.645 18.105 11.405C18.125 12.165 17.255 15.405 18.4 15.755C19.9 16.215 21.83 11.51 22.28 10.355C22.3093 10.2809 22.3602 10.2173 22.4263 10.1727C22.4923 10.1281 22.5703 10.1045 22.65 10.105H26.925C26.9911 10.1048 27.0561 10.121 27.1144 10.152C27.1727 10.1831 27.2224 10.2282 27.2591 10.2831C27.2957 10.3381 27.3182 10.4013 27.3244 10.467C27.3307 10.5328 27.3206 10.5991 27.295 10.66C26.4144 12.6689 25.3587 14.5963 24.14 16.42C24.0364 16.5705 23.9878 16.7521 24.0024 16.9342C24.0169 17.1163 24.0938 17.2879 24.22 17.42C25.5 18.79 29 22.67 27 22.67H22.685C22.5735 22.6703 22.4632 22.6468 22.3614 22.6011C22.2597 22.5554 22.1689 22.4886 22.095 22.405C21.425 21.665 19.475 19.605 18.595 19.77C17.865 19.905 17.795 21.145 17.83 21.955C17.841 22.164 17.7697 22.369 17.6314 22.526C17.4931 22.683 17.2987 22.7796 17.09 22.795C16.325 22.84 15.28 22.86 15.185 22.855C12.135 22.66 10.33 20.625 8.605 18.355C6.79807 15.9484 5.38853 13.2677 4.43 10.415C4.41041 10.3546 4.40528 10.2905 4.41502 10.2278C4.42476 10.1651 4.4491 10.1056 4.48608 10.054C4.52305 10.0024 4.57164 9.96025 4.6279 9.9309C4.68417 9.90154 4.74654 9.88583 4.81 9.88501V9.88501Z" fill="black" fill-opacity="0.8"/>
                  </svg> 